# xmcd
#
# Track frame offsets:
#       150
#       11375
#       22780
#       33432
#       47084
#       59094
#       71712
#       82619
#       95693
#       109110
#       121042
#       135527
#       149376
#       161846
#       175159
#       188106
#       199479
#       210660
#       223567
#       233905
#       244283
#       256260
#       268714
#       280325
#       293103
#       305213
#       318731
#       330450
#       347108
#
# Disc length: 4775 seconds
#
# Revision: 1
# Processed by: cddbd v1.5.2PL0 Copyright (c) Steve Scherf et al.
# Submitted via: FreeDbEdit v0.1
#
DISCID=b912a51d
DTITLE=The Temptations - Creme de Creme
DYEAR=2006
DGENRE=R&B
TTITLE0=Witchcraft for Your Love
TTITLE1=I Want a Love I Can See
TTITLE2=Oh! Mother of Mine
TTITLE3=Mind Over Matter
TTITLE4=I Couldn't Cry If I Wanted To
TTITLE5=Paradise
TTITLE6=Farewell My Love
TTITLE7=The Girl's Alright With Me
TTITLE8=My Baby
TTITLE9=You've Got to Earn It
TTITLE10=Truly Yours
TTITLE11=My Smile Is Just a Frown (Turned Upside Down)
TTITLE12=Forever in My Heart
TTITLE13=I Gotta Find a Way (To Get You Back)
TTITLE14=I Got Heaven Right Here on Earth
TTITLE15=I'm Doing It All
TTITLE16=Angel Doll
TTITLE17=My Girl (German)
TTITLE18=Bluebird (German)
TTITLE19=Tearstained Letter
TTITLE20=Hey Girl
TTITLE21=Solamente Lei (My Girl, Italian)
TTITLE22=Sei Solo Tu (The Way You Do the Things You Do, Italian)
TTITLE23=What Love Has Joined Together
TTITLE24=You Beat Me to the Punch
TTITLE25=Way Over There
TTITLE26=A Tear From a Woman's Eyes
TTITLE27=So Much Joy
TTITLE28=Wherever I Lay My Hat (That's My Home)
EXTD=
EXTT0=
EXTT1=
EXTT2=
EXTT3=
EXTT4=
EXTT5=
EXTT6=
EXTT7=
EXTT8=
EXTT9=
EXTT10=
EXTT11=
EXTT12=
EXTT13=
EXTT14=
EXTT15=
EXTT16=
EXTT17=
EXTT18=
EXTT19=
EXTT20=
EXTT21=
EXTT22=
EXTT23=
EXTT24=
EXTT25=
EXTT26=
EXTT27=
EXTT28=
PLAYORDER=
